<svg width="1024" height="1024" viewBox="0 0 1024 1024" fill="none" xmlns="http://www.w3.org/2000/svg">
<rect width="1024" height="1024" fill="#317D70"/>
<path fill-rule="evenodd" clip-rule="evenodd" d="M206.423 354.979C226.666 355.124 246.913 355.149 267.156 355.053L817.58 355.168L817.62 718.401L817.79 815.656L817.705 839.595C817.7 843.1 817.901 850.146 817.356 853.371C756.856 852.576 695.475 853.426 634.9 853.271L206.524 853.25C205.916 800.061 206.482 745.815 206.472 692.541L206.423 354.979ZM584.005 428.506C559.005 415.642 530.15 411.696 502.7 413.208C470.227 415.066 436.745 423.677 414.467 448.89C405.02 459.582 394.061 479.808 395.495 493.988C397.272 511.545 440.229 515.805 449.221 500.781C459.963 482.825 461.494 460.743 469.812 442.387C501.251 428.869 541.66 437.974 555.025 471.903C569.76 509.3 560.26 559.945 519.771 576.6C503.171 583.24 480.818 583.836 462.764 583.991C462.746 592.351 462.863 600.711 463.115 609.071C493.277 608.211 524.831 604.941 549.266 627.651C565.3 642.511 570.92 664.956 571.285 686.215C571.68 708.835 566.59 730.416 550.65 747.146C527.836 771.101 485.673 773.591 456.438 760.771C453.219 750.486 451.042 740.91 448.679 730.375C445.635 717.836 442.323 697.841 430.533 691.116C417.987 684.246 392.525 685.656 385.099 699.526C380.726 707.876 382.367 718.456 385.288 727.076C400.891 773.12 448.541 790.035 493.205 791.925C544.555 794.095 603.91 780.925 629.95 731.625C641.69 709.411 642.665 678.56 635.03 654.88C621.715 614.696 585.4 600.1 547.28 592.555C576.275 584.19 602.276 571.34 617.15 543.42C638.685 502.991 626.169 449.668 584.005 428.506ZM736.3 382.396C732.03 395.866 728.995 410.046 724.815 423.602C723.501 427.875 722.6 432.939 721.22 437.155C713.025 438.817 703.89 441.675 695.68 443.736C685.885 446.195 674.61 448.828 665.085 452.104C674.105 455.707 688.4 458.853 697.915 461.549C705.335 463.652 713.59 466.347 720.88 468.189C723.085 474.168 723.605 478.77 725.345 484.397C729.14 496.65 732.366 511.65 736.601 523.555C742.336 506.39 746.71 485.54 752.16 468.032C761.73 465.709 771.71 462.579 781.26 459.931C789.695 457.593 800.325 455.266 808.2 452.039C791.151 445.903 769.135 442.767 751.606 436.335C748.286 423.724 744.8 411.156 741.155 398.635C740.14 395.017 737.895 385.284 736.3 382.396Z" fill="#FEFEFE"/>
<path fill-rule="evenodd" clip-rule="evenodd" d="M275.544 171.074C275.441 183.624 275.406 196.175 275.44 208.726C275.442 218.075 274.605 233.329 276.987 241.611C286.708 275.405 329.492 288.052 354.792 262.816C371.149 246.5 369.106 228.696 369.055 208.29L368.815 171.369C379.588 171.033 392.028 171.349 402.907 171.363L655.43 171.376C655.305 174.163 655.22 176.951 655.165 179.74C655.07 189.702 655.03 199.666 655.05 209.628C655.045 217.092 654.82 224.497 655.435 232.04C659.345 279.886 720.22 292.632 743.195 250.644C750.43 237.432 748.535 222.679 748.53 207.72L748.5 171.298C768.5 171.691 788.89 171.128 808.93 171.318C819.73 171.814 832.86 170.109 843.31 172.471C860.804 176.428 877.105 195.572 878.48 213.369C879.309 224.072 878.845 235.807 878.84 246.351L878.73 309.81L878.865 833.14C878.86 846.875 879.064 860.735 878.565 874.47C878.109 887.06 874.315 894.406 866.635 904.026L865.355 905.755C856.69 914.435 844.39 921.32 832.01 921.55C816.865 921.83 801.305 921.716 786.13 921.696L216.342 921.64C207.857 921.635 196.649 921.96 188.585 921.225C179.458 920.39 168.552 914.65 161.946 908.371C151.051 898.011 145.683 887.015 145.495 871.935C145.294 855.78 145.403 839.62 145.408 823.505L145.295 242.476C145.268 219.835 142.38 203.315 159.119 185.581C165.009 179.278 172.565 174.775 180.91 172.593C189.135 170.522 207.916 171.413 217.493 171.337C236.776 171.186 256.236 171.699 275.544 171.074ZM178.031 329.06C177.402 364.657 178.052 402.458 178.042 438.25L178.103 847.93C178.119 857.66 176.055 872.045 182.776 879.21C187.749 884.51 197.621 883.495 204.285 883.475L811.905 883.366C819.115 883.366 826.571 883.446 833.771 883.246C837.675 883.14 840.821 881.725 843.646 879.031C851.1 869.606 849.005 863.22 848.96 851.68L848.885 820.286L848.875 461.469C848.885 417.486 848.505 372.909 849.065 328.963L178.031 329.06Z" fill="#FEFEFE"/>
<path d="M700.12 102.611C704.97 102.318 707.68 102.939 711.975 105.151C725.524 112.136 723.41 127.317 723.43 139.562L723.475 209.663C723.465 226.988 726.595 246.425 704.285 251.27C699.505 251.499 694.77 250.233 690.74 247.65C677.52 239.172 680.471 222.024 680.481 208.213L680.45 139.55C680.455 121.92 678.37 107.575 700.12 102.611Z" fill="#FEFEFE"/>
<path d="M321.307 102.671C328.663 103.053 336.229 105.815 340.055 112.791C344.606 121.088 343.576 127.041 343.573 136.232L343.559 165.553L343.583 206.901C343.612 226.469 347.804 246.234 323.411 251.197C317.972 251.118 313.779 249.614 309.315 246.417C298.137 238.41 300.583 221.378 300.598 208.929L300.562 142.304C300.547 135.339 300.254 127.976 301.018 121.075C302.17 110.656 311.187 103.679 321.307 102.671Z" fill="#FEFEFE"/>
</svg>
